<?xml version="1.0" standalone="no"?>
<!DOCTYPE svg PUBLIC "-//W3C//DTD SVG 20010904//EN"
 "http://www.w3.org/TR/2001/REC-SVG-20010904/DTD/svg10.dtd">
<svg version="1.0" xmlns="http://www.w3.org/2000/svg"
 width="200.000000pt" height="100.000000pt" viewBox="0 0 200.000000 100.000000"
 preserveAspectRatio="xMidYMid meet">

<g transform="translate(0.000000,100.000000) scale(0.100000,-0.100000)"
fill="#000000" stroke="none">
<path d="M361 853 c-29 -70 -55 -134 -58 -141 -4 -10 4 -13 32 -10 37 3 38 4
68 81 17 42 33 75 36 72 3 -4 28 -63 56 -133 l51 -127 37 -3 c20 -2 37 -1 37
2 0 2 -36 89 -79 193 -70 166 -82 188 -103 191 -23 3 -29 -7 -77 -125z"/>
<path d="M640 785 l0 -195 35 0 35 0 0 70 0 70 68 0 c75 0 103 13 127 60 33
64 5 149 -60 176 -21 8 -68 14 -120 14 l-85 0 0 -195z m185 110 c50 -49 19
-105 -63 -113 l-52 -5 0 72 0 71 45 0 c35 0 52 -6 70 -25z"/>
<path d="M930 945 l0 -35 50 0 50 0 0 -160 0 -160 35 0 35 0 0 160 0 160 55 0
55 0 0 35 0 35 -140 0 -140 0 0 -35z"/>
<path d="M1230 851 c0 -71 3 -142 6 -160 20 -100 182 -135 261 -56 l33 33 0
156 0 156 -29 0 -29 0 -4 -141 c-3 -134 -4 -142 -27 -160 -33 -27 -86 -25
-116 6 -24 23 -25 29 -25 160 l0 135 -35 0 -35 0 0 -129z"/>
<path d="M1650 969 c-65 -26 -95 -91 -67 -146 19 -35 43 -49 127 -68 72 -16
95 -36 79 -67 -23 -43 -106 -43 -160 1 -21 17 -25 17 -46 4 -32 -22 -29 -39
15 -67 71 -47 180 -43 239 8 24 21 28 32 28 76 0 72 -27 91 -177 124 -36 8
-52 37 -33 62 20 28 96 26 127 -3 30 -28 40 -29 63 -3 15 17 16 22 4 36 -36
44 -140 66 -199 43z"/>
<path d="M160 757 c-52 -18 -53 -50 -3 -76 22 -10 56 -23 76 -26 36 -7 38 -9
32 -36 -6 -28 -5 -29 28 -29 30 0 37 4 46 30 5 17 17 30 25 30 21 0 66 22 66
32 0 5 -9 4 -19 -2 -11 -5 -46 -10 -78 -10 -69 0 -128 25 -128 55 0 14 11 24
35 32 l35 12 -40 0 c-22 0 -56 -5 -75 -12z"/>
<path d="M51 453 l-1 -43 944 0 945 0 4 -32 c4 -33 4 -32 5 4 l2 38 -943 2
-942 3 -6 35 -6 35 -2 -42z"/>
<path d="M203 243 c-3 -10 -23 -62 -43 -115 l-38 -98 28 0 c21 0 29 6 34 25 6
22 12 25 51 25 39 0 45 -3 51 -25 5 -21 12 -25 48 -26 22 0 62 -1 88 -2 32 -1
53 4 64 15 15 15 19 14 50 -4 26 -15 44 -19 72 -14 20 4 54 7 74 6 32 0 38 3
44 25 5 22 12 25 48 25 36 0 45 -4 54 -25 8 -17 20 -25 36 -25 l25 0 -25 68
c-14 37 -34 87 -43 112 -13 36 -22 46 -43 48 -24 3 -28 -3 -53 -73 l-28 -76
-21 20 c-12 11 -43 28 -71 38 -58 22 -67 46 -17 51 22 2 34 -2 38 -12 8 -21
54 -21 54 -1 0 54 -110 76 -154 32 l-23 -23 -21 23 c-15 17 -31 23 -64 23 -58
0 -88 -22 -88 -64 0 -41 12 -52 79 -72 38 -11 51 -20 51 -33 0 -34 -61 -43
-82 -12 -8 10 -24 21 -37 23 -19 2 -29 17 -51 78 -24 65 -31 75 -54 78 -18 2
-28 -2 -33 -15z m243 -38 c4 -8 16 -15 29 -15 13 0 30 -10 39 -25 10 -15 34
-30 63 -38 53 -16 77 -42 53 -57 -25 -16 -59 -11 -72 10 -7 11 -21 20 -30 20
-10 0 -18 4 -18 10 0 14 -41 50 -57 50 -8 0 -29 7 -48 14 -25 11 -33 19 -29
30 8 21 63 21 70 1z m-186 -82 c0 -7 -11 -13 -25 -13 -28 0 -31 15 -13 56 l12
27 13 -29 c7 -16 12 -35 13 -41z m536 19 c6 -30 4 -32 -20 -32 -29 0 -31 4
-15 49 13 37 26 31 35 -17z"/>
<path d="M1003 223 c-8 -21 -28 -73 -44 -115 l-28 -78 24 0 c18 0 28 8 35 25
8 21 16 25 50 25 33 0 42 -4 52 -25 11 -24 14 -25 110 -25 85 0 101 3 118 20
25 25 26 65 1 87 -17 14 -17 18 -5 30 18 18 18 44 1 67 -11 15 -31 20 -90 24
l-77 5 0 -104 c0 -118 -4 -117 -51 14 -28 77 -34 87 -56 87 -18 0 -28 -9 -40
-37z m261 -9 c9 -3 16 -14 16 -24 0 -20 -19 -30 -56 -30 -20 0 -24 5 -24 30 0
25 4 30 24 30 13 0 31 -3 40 -6z m-195 -96 c1 -5 -10 -8 -23 -8 -33 0 -36 8
-18 50 l15 35 13 -35 c7 -19 13 -38 13 -42z m205 6 c25 -10 19 -43 -10 -54
-49 -19 -64 -13 -64 25 0 32 2 35 29 35 16 0 36 -3 45 -6z"/>
<path d="M1350 145 l0 -115 75 0 c41 0 75 4 75 9 0 6 12 3 28 -5 37 -19 71
-18 110 6 37 23 52 54 52 112 0 55 -51 108 -104 108 -82 0 -122 -50 -114 -140
l5 -50 -38 0 -39 0 0 95 c0 95 0 95 -25 95 l-25 0 0 -115z m270 55 c23 -23 27
-87 8 -113 -7 -9 -25 -19 -40 -22 -39 -10 -68 23 -68 77 0 71 55 103 100 58z"/>
<path d="M1660 255 c0 -3 18 -34 40 -69 32 -50 40 -73 40 -110 0 -42 2 -46 25
-46 23 0 25 4 25 41 0 29 11 59 40 108 22 37 40 70 40 74 0 4 -11 7 -25 7 -18
0 -29 -9 -41 -32 -31 -62 -35 -63 -66 -14 -21 35 -34 46 -53 46 -14 0 -25 -2
-25 -5z"/>
</g>
</svg>
