<?xml version="1.0" standalone="no"?>
<!DOCTYPE svg PUBLIC "-//W3C//DTD SVG 20010904//EN"
 "http://www.w3.org/TR/2001/REC-SVG-20010904/DTD/svg10.dtd">
<svg version="1.0" xmlns="http://www.w3.org/2000/svg"
 width="150.000000pt" height="150.000000pt" viewBox="0 0 150.000000 150.000000"
 preserveAspectRatio="xMidYMid meet">

<g transform="translate(0.000000,150.000000) scale(0.100000,-0.100000)"
fill="#000000" stroke="none">
<path d="M320 1060 c-65 -61 -80 -70 -112 -70 l-38 0 0 -70 0 -70 49 0 c56 0
69 8 186 120 44 41 102 95 129 118 l49 42 -94 0 -94 -1 -75 -69z"/>
<path d="M614 1104 c-21 -15 -93 -77 -159 -139 -152 -143 -185 -165 -241 -165
l-44 0 0 -80 0 -80 58 0 c31 1 67 6 79 13 12 7 96 83 188 170 102 97 174 158
188 158 12 1 31 2 42 3 18 1 20 9 23 74 l3 72 -49 0 c-37 0 -59 -7 -88 -26z"/>
<path d="M790 785 l0 -345 75 0 75 0 0 345 0 345 -75 0 -75 0 0 -345z"/>
<path d="M985 1111 c48 -29 67 -57 72 -105 6 -54 -22 -108 -66 -127 l-29 -13
52 -17 c113 -38 168 -173 117 -286 -23 -50 -58 -82 -114 -105 l-42 -17 115 0
c129 -1 156 9 203 71 55 74 62 189 14 271 -23 39 -89 95 -129 110 -16 6 -15 9
7 33 45 48 29 143 -31 189 -13 10 -46 14 -109 15 l-90 0 30 -19z"/>
<path d="M673 927 c-18 -7 -101 -78 -185 -158 -84 -80 -167 -153 -185 -162
-18 -10 -55 -17 -83 -17 l-50 0 0 -75 0 -75 69 0 c38 0 82 5 97 10 15 6 100
82 190 170 116 114 172 162 194 166 l30 7 0 73 c0 70 -1 74 -22 73 -13 0 -37
-5 -55 -12z"/>
</g>
</svg>
