<svg xmlns="http://www.w3.org/2000/svg" xmlns:xlink="http://www.w3.org/1999/xlink" viewBox="0 0 287.97 157.44"><defs><style>.cls-1{fill:none;}.cls-2{clip-path:url(#clip-path);}.cls-3,.cls-5,.cls-6,.cls-7{fill:#ffd100;}.cls-4,.cls-5,.cls-6,.cls-7{isolation:isolate;}.cls-5,.cls-6,.cls-7{font-size:67px;font-family:HzInterstate-Bold, Hz Interstate;font-weight:700;}.cls-5{letter-spacing:-0.06em;}.cls-6{letter-spacing:-0.01em;}</style><clipPath id="clip-path"><rect class="cls-1" x="5.22" width="278" height="75.22"/></clipPath></defs><title>logogul</title><g id="Layer_2" data-name="Layer 2"><g id="Layer_1-2" data-name="Layer 1"><g id="Layer_2-2" data-name="Layer 2"><g id="Layer_1-2-2" data-name="Layer 1-2"><g class="cls-2"><g id="Smart_vektorobjekt" data-name="Smart vektorobjekt"><g class="cls-2"><path class="cls-3" d="M194.08,59.33c-2.28-2.45-.91-7.32.25-12.83l4-18.7h16.35l3-13.92H201.26L204.16,0H188.74l-10.1,47.78c-1.52,7.14-2.09,12.72,1,18.74,2.88,5.59,12.72,10.93,25.18,7.55l2.75-12.92c-8.45,1-11.84,0-13.5-1.83M63.56,0,56.21,34.51h-27L36.5,0H21L5.22,74.07H20.76L26.19,48.4H53.25L47.8,74.07H63.22L79,0Zm88.8,19.12c-5.39,4.51-8.46,10.4-10.45,19.72l-7.49,35.23h15.43l6.22-29.22c1.47-6.83,2.59-11.11,5.16-13.74,3.54-3.61,8.65-3.81,14.8-3.3l3-13.92c-10.84-2.75-20.3-.05-26.63,5.23m120.39-5.23H224.61l-3,13.92h27.93L214.66,60.69l-2.84,13.38H260l3-13.91H234.84l35.11-33ZM110.27,12.78a31.49,31.49,0,0,0-19.33,7.11C75.15,32.28,67.31,75.16,101.21,75.16c8.79,0,18.56-2.78,25.35-7.9L120.43,56.9c-5.13,4-31,12.53-28.25-8.42h40.4s5.15-16.79-2.26-26.92c-6.31-8.64-17.92-8.79-20-8.79m10,23H95.57c.87-3.33,6.12-11.52,15.87-10.62,10.49,1,8.85,10.62,8.85,10.62M276.77,59.24h0a10.47,10.47,0,0,0-9.7,8,7.9,7.9,0,0,0-.18,1.69h0a6.13,6.13,0,0,0,6,6.27h.46a10.5,10.5,0,0,0,9.71-8,8.46,8.46,0,0,0,.18-1.66,6.11,6.11,0,0,0-5.92-6.3h-.52M282,67a9.43,9.43,0,0,1-8.62,7.16h0C270,74.1,268,72,268,69a6.74,6.74,0,0,1,.16-1.46,9.39,9.39,0,0,1,8.56-7.15c3.45.07,5.36,2.14,5.44,5.19A7.16,7.16,0,0,1,282,67m-5.79-3.56h-3.41l-1.63,7.65h1.69l.52-2.47h1.34l1.1,2.47h2l-1.3-2.74A3.14,3.14,0,0,0,278.65,66c.33-1.59-.64-2.52-2.47-2.52m.73,2.62a1.47,1.47,0,0,1-1.56,1.11h-1.68l.47-2.24h1.64c.85,0,1.28.38,1.12,1.13"/></g></g><g class="cls-4"><text class="cls-5" transform="translate(0 141.38)">F</text><text class="cls-6" transform="translate(37.86 141.38)">r</text><text class="cls-7" transform="translate(65.87 141.38)">eerider</text></g></g></g></g><path class="cls-3" d="M7.27,122.59v-31H25.16V95H11.34v9.75H24.2v3.45H11.34v14.37Z"/><path class="cls-3" d="M35.42,122.59v-31h9.92a26,26,0,0,1,3.43.2,12.08,12.08,0,0,1,2.9.76A6.55,6.55,0,0,1,54,94a6.31,6.31,0,0,1,1.46,2.35A9.92,9.92,0,0,1,56,99.83a7.82,7.82,0,0,1-1.49,4.88A7.33,7.33,0,0,1,50,107.3a5.09,5.09,0,0,1,2.75,1.94,19,19,0,0,1,2.07,4l3.64,9.37H54.07l-3.41-9.11a17.17,17.17,0,0,0-1.34-2.87,3.49,3.49,0,0,0-1.58-1.34,6.74,6.74,0,0,0-2.7-.45H39.48v13.78Zm4-17.2h5.77A12,12,0,0,0,48,105.1a5.31,5.31,0,0,0,2-.93,4.08,4.08,0,0,0,1.27-1.65,6.2,6.2,0,0,0,.44-2.46,6.86,6.86,0,0,0-.37-2.44,3.55,3.55,0,0,0-1.12-1.55,4.46,4.46,0,0,0-1.89-.82A13.54,13.54,0,0,0,45.66,95h-6.2Z"/><path class="cls-3" d="M68.78,122.59v-31H87.34V95H72.84v9.75H86.53v3.45H72.84v10.94H88v3.43Z"/><path class="cls-3" d="M98.77,122.59v-31h18.57V95h-14.5v9.75h13.69v3.45H102.84v10.94H118v3.43Z"/><path class="cls-3" d="M128.77,122.59v-31h9.92a26,26,0,0,1,3.43.2,12.08,12.08,0,0,1,2.9.76A6.55,6.55,0,0,1,147.33,94a6.31,6.31,0,0,1,1.46,2.35,9.92,9.92,0,0,1,.54,3.46,7.82,7.82,0,0,1-1.49,4.88,7.33,7.33,0,0,1-4.54,2.6,5.09,5.09,0,0,1,2.75,1.94,19,19,0,0,1,2.07,4l3.64,9.37h-4.34L144,113.48a17.17,17.17,0,0,0-1.34-2.87,3.49,3.49,0,0,0-1.58-1.34,6.74,6.74,0,0,0-2.7-.45h-5.56v13.78Zm4-17.2h5.77a12,12,0,0,0,2.75-.29,5.31,5.31,0,0,0,2-.93,4.08,4.08,0,0,0,1.27-1.65,6.2,6.2,0,0,0,.44-2.46,6.86,6.86,0,0,0-.37-2.44,3.55,3.55,0,0,0-1.12-1.55,4.46,4.46,0,0,0-1.89-.82A13.54,13.54,0,0,0,139,95h-6.2Z"/><path class="cls-3" d="M162.47,122.59v-31h4.07v31Z"/><path class="cls-3" d="M179.3,122.59v-31h7.62q9,0,13.73,3.81t4.75,11.73q0,7.41-4.41,11.43t-12.69,4Zm4.07-3.43h5.15a17,17,0,0,0,5.46-.8,10.29,10.29,0,0,0,3.94-2.34,9.78,9.78,0,0,0,2.38-3.78,15.15,15.15,0,0,0,.8-5.11q0-6.2-3.4-9.16t-10.4-3h-3.94Z"/><path class="cls-3" d="M216.43,122.59v-31H235V95H220.5v9.75h13.69v3.45H220.5v10.94h15.12v3.43Z"/><path class="cls-3" d="M246.43,122.59v-31h9.92a26,26,0,0,1,3.43.2,12.08,12.08,0,0,1,2.9.76A6.55,6.55,0,0,1,265,94a6.31,6.31,0,0,1,1.46,2.35,9.92,9.92,0,0,1,.54,3.46,7.82,7.82,0,0,1-1.49,4.88,7.33,7.33,0,0,1-4.54,2.6,5.09,5.09,0,0,1,2.75,1.94,19,19,0,0,1,2.07,4l3.64,9.37h-4.34l-3.41-9.11a17.17,17.17,0,0,0-1.34-2.87,3.49,3.49,0,0,0-1.58-1.34,6.74,6.74,0,0,0-2.7-.45h-5.56v13.78Zm4-17.2h5.77a12,12,0,0,0,2.75-.29,5.31,5.31,0,0,0,2-.93,4.08,4.08,0,0,0,1.27-1.65,6.2,6.2,0,0,0,.44-2.46,6.86,6.86,0,0,0-.37-2.44,3.54,3.54,0,0,0-1.12-1.55,4.46,4.46,0,0,0-1.89-.82,13.54,13.54,0,0,0-2.68-.23h-6.2Z"/></g></g></svg>