<?xml version="1.0" standalone="no"?>
<!DOCTYPE svg PUBLIC "-//W3C//DTD SVG 20010904//EN"
 "http://www.w3.org/TR/2001/REC-SVG-20010904/DTD/svg10.dtd">
<svg version="1.0" xmlns="http://www.w3.org/2000/svg"
 width="682.000000pt" height="100.000000pt" viewBox="0 0 682.000000 100.000000"
 preserveAspectRatio="xMidYMid meet">

<g transform="translate(0.000000,100.000000) scale(0.100000,-0.100000)"
fill="#000000" stroke="none">
<path d="M1934 981 c-44 -27 -64 -59 -64 -102 0 -65 40 -96 143 -114 26 -4 41
-13 48 -29 26 -57 -40 -90 -121 -62 -43 15 -46 14 -65 -5 -20 -20 -20 -20 0
-35 50 -37 158 -42 209 -9 13 9 31 33 41 54 14 33 15 45 5 75 -15 45 -40 63
-110 76 -63 12 -80 24 -80 56 0 47 82 68 126 33 7 -5 19 0 33 15 l23 25 -41
20 c-50 26 -106 27 -147 2z"/>
<path d="M2177 993 c-4 -3 -7 -19 -7 -35 0 -27 1 -28 55 -28 l55 0 0 -165 0
-165 30 0 30 0 0 165 0 165 50 0 50 0 0 35 0 35 -128 0 c-71 0 -132 -3 -135
-7z"/>
<path d="M2549 976 c-20 -14 -42 -40 -50 -58 -19 -45 -18 -203 2 -242 47 -96
193 -99 242 -5 15 28 17 53 15 141 -3 98 -5 109 -28 133 -56 60 -122 71 -181
31z m123 -63 c26 -24 27 -202 1 -225 -29 -25 -53 -29 -82 -13 -34 17 -41 38
-41 128 0 66 11 104 34 119 20 13 69 8 88 -9z"/>
<path d="M2898 979 c-57 -30 -73 -67 -73 -179 0 -136 33 -187 126 -197 60 -6
107 20 137 75 l23 42 -40 0 c-31 0 -41 -4 -46 -21 -16 -50 -108 -43 -123 10
-4 14 -7 61 -7 103 1 60 5 81 20 97 26 30 78 28 103 -4 21 -27 82 -36 82 -12
0 26 -39 74 -73 90 -45 22 -83 21 -129 -4z"/>
<path d="M3170 801 l0 -201 30 0 c30 0 30 0 30 57 0 45 5 63 26 90 14 19 30
33 35 31 5 -2 31 -41 57 -88 45 -81 49 -85 85 -88 20 -2 37 0 37 3 0 4 -29 56
-65 116 -36 61 -65 114 -65 118 0 4 27 39 60 78 32 39 56 73 53 77 -4 3 -20 6
-37 6 -27 0 -40 -12 -101 -88 l-70 -87 -5 85 -5 85 -32 3 -33 3 0 -200z"/>
<path d="M3524 987 c-2 -7 -3 -96 -2 -197 l3 -185 33 -3 32 -3 0 85 0 86 70 0
69 0 3 -82 3 -83 33 -3 32 -3 0 201 0 201 -32 -3 -33 -3 -3 -82 -3 -83 -69 0
-70 0 0 85 0 85 -30 0 c-17 0 -33 -6 -36 -13z"/>
<path d="M3948 979 c-46 -24 -65 -58 -73 -135 -10 -88 8 -173 44 -206 61 -55
164 -45 208 21 20 30 23 46 23 138 0 121 -13 153 -72 184 -47 24 -83 23 -130
-2z m117 -69 c23 -25 32 -143 16 -193 -19 -57 -82 -69 -120 -23 -8 9 -12 48
-12 106 0 73 3 96 17 111 23 25 76 25 99 -1z"/>
<path d="M4237 994 c-4 -4 -7 -94 -7 -201 l0 -194 123 3 122 3 3 33 3 32 -90
0 -91 0 -2 163 -3 162 -25 3 c-14 2 -29 0 -33 -4z"/>
<path d="M4540 800 l0 -200 30 0 30 0 0 104 c0 58 4 108 10 111 5 3 25 -25 44
-62 46 -93 64 -93 114 2 l37 70 3 -113 3 -112 34 0 35 0 0 201 0 200 -32 -3
c-31 -3 -36 -9 -82 -105 -27 -57 -52 -103 -55 -103 -4 0 -30 47 -59 105 -49
98 -54 105 -82 105 l-30 0 0 -200z"/>
<path d="M5015 982 c-41 -26 -55 -44 -61 -84 -12 -71 24 -111 116 -128 62 -12
80 -24 80 -55 0 -46 -60 -65 -130 -41 -40 14 -46 14 -62 -1 -24 -22 -23 -30
10 -47 75 -38 165 -32 212 15 24 25 30 39 30 75 0 76 -20 97 -111 114 -29 6
-58 15 -66 21 -18 16 -16 54 3 70 20 17 88 16 109 -1 12 -10 18 -8 34 11 23
28 19 37 -25 55 -46 19 -103 17 -139 -4z"/>
<path d="M250 919 c-120 -113 -146 -129 -202 -129 l-48 0 0 -90 0 -90 74 0
c88 0 77 -7 295 200 83 80 166 153 184 163 31 17 31 17 -98 17 l-130 -1 -75
-70z"/>
<path d="M642 968 c-23 -13 -119 -95 -214 -183 -94 -88 -196 -179 -226 -202
-53 -42 -57 -43 -128 -43 l-74 0 0 -110 0 -110 83 0 c67 0 88 4 118 23 20 12
134 115 252 228 199 191 219 208 266 219 28 7 58 9 66 6 13 -4 15 10 15 94 l0
100 -58 0 c-42 0 -71 -6 -100 -22z"/>
<path d="M860 515 l0 -475 100 0 100 0 0 475 0 475 -100 0 -100 0 0 -475z"/>
<path d="M1115 977 c11 -7 36 -28 56 -47 86 -83 70 -211 -34 -279 l-38 -25 44
-11 c65 -16 111 -49 150 -108 48 -71 60 -117 55 -197 -6 -79 -44 -158 -95
-198 -19 -13 -61 -35 -96 -48 l-62 -23 161 0 160 -1 50 35 c99 70 139 157 132
284 -3 48 -13 95 -27 128 -27 61 -99 132 -165 165 -49 23 -55 32 -31 42 21 8
55 83 55 121 0 45 -32 106 -74 143 l-37 32 -112 -1 c-91 0 -108 -2 -92 -12z"/>
<path d="M685 710 c-11 -5 -117 -102 -235 -216 -125 -120 -232 -214 -255 -225
-28 -13 -63 -19 -117 -19 l-78 0 0 -105 0 -105 93 0 c50 1 109 7 129 14 25 9
105 79 252 221 233 225 257 245 299 245 l27 0 0 100 0 100 -47 -1 c-27 0 -57
-4 -68 -9z"/>
<path d="M5534 536 c-10 -26 1 -51 24 -54 19 -3 22 1 22 32 0 30 -4 36 -20 36
-11 0 -23 -6 -26 -14z"/>
<path d="M5654 536 c-11 -29 1 -51 29 -54 25 -3 27 -1 27 32 0 32 -3 36 -25
36 -14 0 -28 -6 -31 -14z"/>
<path d="M1928 424 c-58 -31 -77 -122 -35 -169 16 -18 39 -28 82 -37 89 -16
119 -53 77 -91 -23 -21 -100 -22 -128 -2 -19 13 -23 12 -44 -10 l-22 -24 33
-21 c49 -31 166 -25 203 9 38 36 50 82 32 124 -18 43 -47 63 -106 72 -68 11
-82 21 -78 58 4 42 40 56 101 40 37 -10 44 -10 61 7 19 18 18 19 -15 39 -41
25 -121 28 -161 5z"/>
<path d="M2170 411 c0 -29 2 -30 53 -33 l52 -3 3 -162 2 -163 30 0 30 0 2 163
3 162 48 3 c45 3 47 5 47 33 l0 29 -135 0 -135 0 0 -29z"/>
<path d="M2500 300 c0 -161 10 -198 62 -230 38 -23 110 -26 148 -7 13 7 35 28
47 46 21 32 23 44 23 182 l0 149 -35 0 -35 0 0 -149 c0 -144 -1 -151 -22 -165
-31 -22 -74 -20 -98 4 -18 18 -20 33 -20 165 l0 145 -35 0 -35 0 0 -140z"/>
<path d="M2860 245 l0 -195 93 0 c113 0 146 16 172 83 24 65 18 204 -11 244
-34 47 -79 63 -171 63 l-83 0 0 -195z m184 109 c23 -22 29 -55 24 -135 -5 -86
-24 -109 -94 -109 l-44 0 0 130 0 130 49 0 c32 0 55 -6 65 -16z"/>
<path d="M3219 278 c-1 -90 -2 -176 -2 -193 l-1 -30 122 -3 122 -3 0 31 0 30
-90 0 -90 0 0 50 0 50 75 0 75 0 0 35 0 35 -76 0 -75 0 3 48 3 47 88 3 87 3 0
29 0 30 -120 0 -120 0 -1 -162z"/>
<path d="M3540 245 l0 -195 30 0 29 0 3 112 c2 62 7 113 12 113 5 0 41 -51 80
-112 67 -106 73 -113 104 -113 l32 0 0 195 0 195 -35 0 -35 0 0 -115 c0 -63
-4 -115 -9 -115 -5 0 -42 52 -82 115 -65 101 -77 115 -101 115 l-28 0 0 -195z"/>
<path d="M3890 411 c0 -28 2 -30 48 -33 l47 -3 3 -162 2 -163 35 0 35 0 0 165
0 165 50 0 c49 0 50 1 50 30 l0 30 -135 0 -135 0 0 -29z"/>
<path d="M4220 245 l0 -195 95 0 c107 0 150 14 165 56 16 41 11 89 -11 118
-19 24 -20 29 -6 44 25 28 30 66 13 106 -21 50 -62 66 -171 66 l-85 0 0 -195z
m188 113 c7 -7 12 -21 12 -33 0 -33 -20 -45 -76 -45 l-52 0 -4 45 -3 45 55 0
c31 0 61 -5 68 -12z m-2 -156 c6 -4 14 -17 18 -29 11 -36 -24 -63 -83 -63
l-49 0 -4 50 -3 50 55 0 c30 0 60 -4 66 -8z"/>
<path d="M4623 420 c-54 -33 -65 -67 -61 -192 l3 -110 37 -34 c33 -29 45 -34
89 -34 63 0 111 27 130 73 22 50 19 216 -4 250 -42 64 -131 86 -194 47z m118
-59 c22 -18 24 -26 24 -114 0 -79 -3 -98 -19 -116 -24 -26 -66 -27 -97 -2 -20
16 -23 27 -23 97 -1 97 7 128 36 142 34 16 53 14 79 -7z"/>
<path d="M4953 425 c-55 -24 -78 -96 -49 -154 17 -32 46 -47 110 -56 72 -11
98 -52 58 -88 -23 -21 -100 -22 -128 -2 -19 13 -23 12 -44 -10 l-22 -24 33
-20 c26 -16 51 -21 103 -21 64 0 70 2 102 34 30 30 34 40 34 84 0 43 -4 54
-29 75 -17 14 -50 28 -78 32 -26 4 -56 11 -65 16 -22 12 -23 52 -2 73 18 18
76 21 105 5 16 -8 25 -7 40 7 26 23 24 29 -15 48 -41 19 -110 20 -153 1z"/>
<path d="M5200 411 c0 -28 2 -30 48 -33 l47 -3 3 -162 2 -163 30 0 30 0 2 163
3 162 53 3 c50 3 52 4 52 33 l0 29 -135 0 -135 0 0 -29z"/>
<path d="M5586 408 c-17 -40 -126 -347 -126 -353 0 -3 15 -5 34 -5 29 0 34 4
42 33 l10 32 74 0 75 0 10 -32 c8 -30 13 -33 47 -33 l38 0 -19 47 c-10 27 -42
114 -71 196 -48 134 -55 147 -77 147 -18 0 -28 -9 -37 -32z m67 -162 c10 -31
17 -59 14 -62 -3 -3 -25 -4 -50 -2 l-45 3 21 63 c12 34 25 61 31 59 5 -2 18
-29 29 -61z"/>
<path d="M5830 246 l0 -196 93 0 c151 0 187 37 187 196 0 154 -30 186 -182
192 l-98 4 0 -196z m194 102 c11 -16 16 -47 16 -106 0 -75 -2 -85 -25 -107
-18 -18 -35 -25 -65 -25 l-40 0 0 130 0 130 49 0 c40 0 53 -4 65 -22z"/>
<path d="M6190 245 l0 -195 120 0 120 0 0 30 0 29 -87 3 -88 3 -3 48 -3 47 80
0 81 0 0 35 0 35 -81 0 -80 0 3 48 3 47 88 3 87 3 0 29 0 30 -120 0 -120 0 0
-195z"/>
<path d="M6510 245 l0 -195 35 0 35 0 0 80 0 80 29 0 c27 0 32 -7 67 -80 37
-80 37 -80 76 -80 21 0 38 3 38 8 0 4 -18 40 -40 80 l-40 73 35 33 c28 26 35
41 35 70 0 90 -52 126 -184 126 l-86 0 0 -195z m192 100 c8 -19 8 -31 0 -50
-10 -22 -18 -25 -67 -25 l-55 0 0 50 0 50 55 0 c49 0 57 -3 67 -25z"/>
</g>
</svg>
